<?xml version="1.0" encoding="UTF-8"?>
<svg viewBox="0 0 44 44" version="1.1" xmlns="http://www.w3.org/2000/svg" xmlns:xlink="http://www.w3.org/1999/xlink">
    <!-- Generator: Sketch 53.2 (72643) - https://sketchapp.com -->
    <title>package</title>
    <desc>Created with Sketch.</desc>
    <g id="Page-1" stroke="none" stroke-width="1" fill="none" fill-rule="evenodd">
        <g id="package" transform="translate(-2.000000, -2.000000)">
            <polygon id="Boundary" points="0 0 48 0 48 48 0 48"></polygon>
            <g id="Design" transform="translate(2.000000, 2.000000)" fill="#4CB75B" fill-rule="nonzero">
                <g id="XMLID_1_">
                    <polygon id="Path" fill-opacity="0.35" points="22 38.69 22 39 1 30 1 9 11.74 13.09 22 17"></polygon>
                    <polygon id="Path" fill-opacity="0.35" points="22 39.11 22 43 1 34 1 30 22 39"></polygon>
                    <path d="M43.356,8.065 L22.356,0.065 C22.1278513,-0.0207488654 21.8763901,-0.0211040366 21.648,0.064 L0.648,7.964 C0.259520362,8.11009111 0.00166141459,8.48096231 3.10862447e-15,8.896 C3.10862447e-15,8.912 0.006,8.927 0.007,8.943 C0.006,8.962 0,8.98 0,9 L0,34 C0,34.4 0.238,34.762 0.606,34.919 L21.606,43.919 L21.61,43.91 C21.735,43.963 21.865,44 22,44 C22.133,44 22.268,43.973 22.394,43.919 L43.394,34.919 C43.7617806,34.7616288 44.0002199,34.4000353 44,34 L44,9 C44.0002134,8.58487434 43.7439292,8.2127847 43.356,8.065 L43.356,8.065 Z M2,10.451 L21,17.69 L21,37.484 L2,29.341 L2,10.451 Z M23,17.689 L42,10.451 L42,29.451 L23,37.594 L23,17.689 Z M22.002,15.929 L14.485,13.03 L31.774,5.793 L40.191,9 L22.002,15.929 L22.002,15.929 Z M21.998,2.069 L29.063,4.76 L11.793,11.991 L3.808,8.911 L21.998,2.069 Z M2,31.516 L21,39.659 L21,41.483 L2,33.341 L2,31.516 Z M23,41.483 L23,39.769 L42,31.626 L42,33.341 L23,41.483 L23,41.483 Z" id="Shape"></path>
                </g>
            </g>
        </g>
    </g>
</svg>
