<?xml version="1.0" encoding="UTF-8"?>
<svg viewBox="0 0 40 32" version="1.1" xmlns="http://www.w3.org/2000/svg" xmlns:xlink="http://www.w3.org/1999/xlink">
    <!-- Generator: Sketch 53.2 (72643) - https://sketchapp.com -->
    <title>the-basics</title>
    <desc>Created with Sketch.</desc>
    <g id="Page-1" stroke="none" stroke-width="1" fill="none" fill-rule="evenodd">
        <g id="the-basics" transform="translate(-4.000000, -9.000000)">
            <g id="Boundary">
                <rect id="Rectangle" x="0" y="0" width="48" height="48"></rect>
            </g>
            <g id="Design" transform="translate(3.000000, 9.000000)" fill="#4CB75B" fill-rule="nonzero">
                <g id="XMLID_82_">
                    <path d="M18.49,10.73 C17.62,12.53 15.42,15.15 10.85,12.87 C6.27,10.59 1.91,2.47 1.91,2.47 C1.91,2.47 10.89,0.99 15.47,3.27 C20.04,5.55 19.35,8.93 18.49,10.73 Z" id="Path" fill-opacity="0.35"></path>
                    <path d="M28.556,17.823 C29.74,17.823 31.143,17.447 32.761,16.413 C37.293,13.52 40.801,5.007 40.948,4.646 C41.073,4.339 41.042,3.992 40.865,3.712 C40.689,3.433 40.388,3.256 40.058,3.237 C39.673,3.215 30.587,2.731 26.049,5.635 C21.51,8.532 22.241,12.067 23.065,13.899 L23.037,13.917 L23.167,14.12 C23.296,14.385 23.422,14.608 23.525,14.775 C23.667,15 23.824,15.191 23.977,15.39 L23.977,19.041 L19.622,10.685 C20.304,8.946 21.137,4.951 15.928,2.352 C15.928,2.352 15.928,2.352 15.927,2.352 C11.107,-0.047 2.126,1.395 1.744,1.458 C1.418,1.512 1.138,1.72 0.992,2.016 C0.846,2.313 0.852,2.662 1.009,2.953 C1.193,3.296 5.578,11.388 10.394,13.785 C11.725,14.449 12.976,14.782 14.132,14.782 C14.754,14.782 15.349,14.685 15.915,14.493 C16.991,14.126 17.792,13.467 18.392,12.754 L23.977,23.469 L23.977,26.948 C22.546,26.945 21.115,27.212 19.768,27.749 C17.358,28.722 15.147,29.194 13.011,29.194 L9.978,29.194 L9.978,31.241 L13.011,31.241 C15.415,31.241 17.876,30.72 20.53,29.649 C22.718,28.778 25.187,28.775 27.38,29.648 C30.012,30.705 32.576,31.241 35.002,31.241 L36.025,31.241 L36.025,29.194 L35,29.194 C32.837,29.194 30.529,28.708 28.139,27.747 C27.452,27.473 26.743,27.272 26.024,27.139 L26.024,17.177 C26.712,17.547 27.551,17.823 28.556,17.823 Z M15.253,12.556 C14.171,12.923 12.845,12.721 11.306,11.954 C8.134,10.374 4.97,5.608 3.565,3.285 C6.236,2.99 11.854,2.614 15.014,4.185 C18.039,5.695 18.384,7.673 17.931,9.317 L13.87,7.33 L12.971,9.17 L17.044,11.162 C16.626,11.736 16.047,12.285 15.253,12.556 Z M27.151,7.363 C27.151,7.362 27.152,7.362 27.151,7.363 C30.06,5.5 35.504,5.246 38.256,5.246 C38.319,5.246 38.38,5.246 38.44,5.246 C37.288,7.706 34.644,12.782 31.659,14.687 C29.368,16.152 27.478,16.123 26.024,14.638 L26.024,14.44 L30.574,11.531 L29.471,9.805 L24.804,12.788 C24.167,11.199 24.287,9.19 27.151,7.363 Z" id="Shape"></path>
                </g>
            </g>
        </g>
    </g>
</svg>
