<svg xmlns="http://www.w3.org/2000/svg" viewBox="0 0 48 48"><style>.st0{fill:none}.st1{fill:#f9b6b3}.st2{fill:#ef4742}</style><path class="st0" d="M0 0h48v48H0z" id="Boundary"/><g id="Design"><g id="XMLID_15_"><path class="st1" d="M18.09 17.99c.47 2.84 2.94 5 5.91 5s5.43-2.16 5.91-4.99c.06-.33.09-.67.09-1.01 0-3.32-2.68-6-6-6-3.31 0-6 2.68-6 6 0 .34.03.67.09 1zM39 7v27h-7.99V28.57c0-1.42-1.25-2.57-2.8-2.57h-8.42c-1.55 0-2.8 1.15-2.8 2.57V34H9V7h30z"/><path class="st2" d="M43 2H5a1 1 0 0 0-1 1v42a1 1 0 0 0 1 1h38a1 1 0 0 0 1-1V3a1 1 0 0 0-1-1zm-1 2v36H6V4h36zM6 44v-2h36v2H6z"/><path class="st2" d="M9 35h30a1 1 0 0 0 1-1V7a1 1 0 0 0-1-1H9a1 1 0 0 0-1 1v27a1 1 0 0 0 1 1zm16-5v-3h3.21c.992 0 1.8.704 1.8 1.57V33H17.99v-4.43c0-.866.808-1.57 1.8-1.57H23v3h2zM10 8h28v25h-5.99v-4.43c0-1.968-1.704-3.57-3.8-3.57h-8.42c-2.096 0-3.8 1.602-3.8 3.57V33H10V8z"/><path class="st2" d="M24 23.99a6.975 6.975 0 0 0 6.895-5.812c.07-.389.105-.789.105-1.188 0-3.86-3.141-7-7-7s-7 3.14-7 7c0 .396.034.779.104 1.17A6.96 6.96 0 0 0 24 23.99zm0-2a4.964 4.964 0 0 1-4.657-3.203c1.214-.372 2.103-1.2 2.688-1.948.973.918 2.877 1.9 6.548 2.113A4.966 4.966 0 0 1 24 21.99zm0-10a5.005 5.005 0 0 1 4.999 4.987c-5.372-.214-6.009-2.143-6.012-2.143a.998.998 0 0 0-.863-.825.998.998 0 0 0-1.04.592c-.009.019-.723 1.569-2.059 2.155.124-2.646 2.298-4.766 4.975-4.766z"/></g></g></svg>