<?xml version="1.0" encoding="UTF-8"?>
<svg viewBox="0 0 40 44" version="1.1" xmlns="http://www.w3.org/2000/svg" xmlns:xlink="http://www.w3.org/1999/xlink">
    <!-- Generator: Sketch 53.2 (72643) - https://sketchapp.com -->
    <title>visitor-photo</title>
    <desc>Created with Sketch.</desc>
    <g id="Page-1" stroke="none" stroke-width="1" fill="none" fill-rule="evenodd">
        <g id="visitor-photo" transform="translate(-4.000000, -2.000000)">
            <polygon id="Boundary" points="0 0 48 0 48 48 0 48"></polygon>
            <g id="Design" transform="translate(4.000000, 2.000000)" fill="#4CB75B" fill-rule="nonzero">
                <g id="XMLID_15_">
                    <path d="M14.09,15.99 C14.56,18.83 17.03,20.99 20,20.99 C22.97,20.99 25.43,18.83 25.91,16 C25.97,15.67 26,15.33 26,14.99 C26,11.67 23.32,8.99 20,8.99 C16.69,8.99 14,11.67 14,14.99 C14,15.33 14.03,15.66 14.09,15.99 Z M35,5 L35,32 L27.01,32 L27.01,26.57 C27.01,25.15 25.76,24 24.21,24 L15.79,24 C14.24,24 12.99,25.15 12.99,26.57 L12.99,32 L5,32 L5,5 L35,5 Z" id="Shape" fill-opacity="0.25"></path>
                    <path d="M39,0 L1,0 C0.44771525,0 0,0.44771525 0,1 L0,43 C0,43.5522847 0.44771525,44 1,44 L39,44 C39.5522847,44 40,43.5522847 40,43 L40,1 C40,0.44771525 39.5522847,0 39,0 Z M38,2 L38,38 L2,38 L2,2 L38,2 Z M2,42 L2,40 L38,40 L38,42 L2,42 Z" id="Shape"></path>
                    <path d="M5,33 L35,33 C35.5522847,33 36,32.5522847 36,32 L36,5 C36,4.44771525 35.5522847,4 35,4 L5,4 C4.44771525,4 4,4.44771525 4,5 L4,32 C4,32.5522847 4.44771525,33 5,33 Z M21,28 L21,25 L24.21,25 C25.202,25 26.01,25.704 26.01,26.57 L26.01,31 L13.99,31 L13.99,26.57 C13.99,25.704 14.798,25 15.79,25 L19,25 L19,28 L21,28 Z M6,6 L34,6 L34,31 L28.01,31 L28.01,26.57 C28.01,24.602 26.306,23 24.21,23 L15.79,23 C13.694,23 11.99,24.602 11.99,26.57 L11.99,31 L6,31 L6,6 Z" id="Shape"></path>
                    <path d="M20,21.99 C23.4100639,21.9986232 26.3264207,19.5403396 26.895,16.178 C26.965,15.789 27,15.389 27,14.99 C27,11.13 23.859,7.99 20,7.99 C16.141,7.99 13,11.13 13,14.99 C13,15.386 13.034,15.769 13.104,16.16 C13.6589892,19.5331638 16.581513,22.0039169 20,21.99 Z M20,19.99 C17.9320326,19.9966034 16.0766134,18.7204798 15.343,16.787 C16.557,16.415 17.446,15.587 18.031,14.839 C19.004,15.757 20.908,16.739 24.579,16.952 C23.8030624,18.7938296 21.9986031,19.9910228 20,19.99 L20,19.99 Z M20,9.99 C22.7548293,9.99328469 24.9890945,12.2221866 24.999,14.977 C19.627,14.763 18.99,12.834 18.987,12.834 C18.9136761,12.3982824 18.5625758,12.062642 18.124,12.009 C17.6843482,11.9535577 17.2607909,12.1946595 17.084,12.601 C17.075,12.62 16.361,14.17 15.025,14.756 C15.149,12.11 17.323,9.99 20,9.99 L20,9.99 Z" id="Shape"></path>
                </g>
            </g>
        </g>
    </g>
</svg>
