<?xml version="1.0" encoding="utf-8"?>
<!-- Generator: Adobe Illustrator 19.2.1, SVG Export Plug-In . SVG Version: 6.00 Build 0)  -->
<svg version="1.1" xmlns="http://www.w3.org/2000/svg" xmlns:xlink="http://www.w3.org/1999/xlink" x="0px" y="0px"
	 viewBox="0 0 48 48" style="enable-background:new 0 0 48 48;" xml:space="preserve">
<style type="text/css">
	.st0{fill:none;}
	.st1{fill:#FAC8C6;}
	.st2{fill:#EF4742;}
</style>
<g id="Boundary">
	<rect class="st0" width="48" height="48"/>
</g>
<g id="Design">
	<g>
		<g>
			<path class="st1" d="M0.99,24C0.99,11.3,11.29,1,24,1c12.7,0,23,10.3,23,23c0,12.71-10.3,23.01-23,23.01
				C11.29,47.01,0.99,36.71,0.99,24z M43,24c0-10.49-8.51-19-19-19C13.5,5,4.99,13.51,4.99,24c0,10.5,8.51,19.01,19.01,19.01
				C34.49,43.01,43,34.5,43,24z"/>
		</g>
		<g>
			<path class="st2" d="M24,0C10.761,0-0.01,10.766-0.01,24c0,13.239,10.771,24.01,24.01,24.01c13.233,0,24-10.771,24-24.01
				C48,10.766,37.233,0,24,0z M24,46.01C11.864,46.01,1.99,36.136,1.99,24C1.99,11.869,11.864,2,24,2c12.131,0,22,9.869,22,22
				C46,36.136,36.131,46.01,24,46.01z"/>
			<path class="st2" d="M24,4C12.967,4,3.99,12.972,3.99,24c0,11.033,8.977,20.01,20.01,20.01c11.028,0,20-8.977,20-20.01
				C44,12.972,35.028,4,24,4z M24,42.01c-9.931,0-18.01-8.079-18.01-18.01c0-9.925,8.079-18,18.01-18c9.925,0,18,8.075,18,18
				C42,33.931,33.925,42.01,24,42.01z"/>
			<path class="st2" d="M37.187,21.018l-2.359-0.449l-0.746-1.793l1.356-1.993c0.27-0.397,0.22-0.93-0.12-1.27l-2.83-2.83
				c-0.34-0.34-0.873-0.391-1.27-0.12l-1.993,1.355l-1.793-0.745l-0.449-2.361C26.893,10.341,26.48,10,26,10h-4
				c-0.48,0-0.893,0.341-0.982,0.813l-0.449,2.361l-1.793,0.745l-1.993-1.355c-0.396-0.271-0.93-0.22-1.27,0.12l-2.83,2.83
				c-0.34,0.339-0.39,0.873-0.12,1.27l1.356,1.993l-0.746,1.793l-2.359,0.449C10.342,21.107,10,21.52,10,22v4
				c0,0.48,0.342,0.893,0.813,0.982l2.359,0.449l0.746,1.793l-1.356,1.993c-0.27,0.397-0.22,0.93,0.12,1.27l2.83,2.83
				c0.34,0.34,0.873,0.391,1.27,0.12l1.993-1.355l1.793,0.745l0.449,2.361C21.107,37.659,21.52,38,22,38h4
				c0.48,0,0.893-0.341,0.982-0.813l0.449-2.361l1.793-0.745l1.993,1.355c0.397,0.271,0.93,0.22,1.27-0.12l2.83-2.83
				c0.34-0.339,0.39-0.873,0.12-1.27l-1.356-1.993l0.746-1.793l2.359-0.449C37.658,26.893,38,26.48,38,26v-4
				C38,21.52,37.658,21.107,37.187,21.018z M36,25.172l-2.076,0.395c-0.331,0.063-0.607,0.288-0.737,0.599l-1.16,2.79
				c-0.129,0.312-0.093,0.667,0.097,0.946l1.195,1.756l-1.66,1.659l-1.756-1.194c-0.28-0.19-0.637-0.226-0.946-0.097l-2.79,1.16
				c-0.311,0.129-0.536,0.406-0.599,0.736L25.172,36h-2.344l-0.396-2.077c-0.062-0.331-0.288-0.607-0.599-0.736l-2.79-1.16
				c-0.31-0.129-0.666-0.094-0.946,0.097l-1.756,1.194l-1.66-1.659l1.195-1.756c0.189-0.279,0.226-0.635,0.097-0.946l-1.16-2.79
				c-0.13-0.311-0.406-0.536-0.737-0.599L12,25.172v-2.345l2.076-0.395c0.331-0.063,0.607-0.288,0.737-0.599l1.16-2.79
				c0.129-0.312,0.093-0.667-0.097-0.946l-1.195-1.756l1.66-1.659l1.756,1.194c0.28,0.19,0.637,0.227,0.946,0.097l2.79-1.16
				c0.311-0.129,0.536-0.406,0.599-0.736L22.828,12h2.344l0.396,2.077c0.062,0.331,0.288,0.607,0.599,0.736l2.79,1.16
				c0.31,0.129,0.666,0.093,0.946-0.097l1.756-1.194l1.66,1.659l-1.195,1.756c-0.189,0.279-0.226,0.635-0.097,0.946l1.16,2.79
				c0.13,0.311,0.406,0.536,0.737,0.599L36,22.828V25.172z"/>
			<path class="st2" d="M26.777,18.303c-0.188-0.188-0.441-0.293-0.707-0.293H21.93c-0.266,0-0.52,0.105-0.707,0.293l-2.92,2.92
				c-0.188,0.188-0.293,0.442-0.293,0.707v4.14c0,0.265,0.105,0.52,0.293,0.707l2.92,2.92c0.188,0.188,0.441,0.293,0.707,0.293
				h4.141c0.266,0,0.52-0.105,0.707-0.293l2.92-2.92c0.188-0.188,0.293-0.442,0.293-0.707v-4.14c0-0.265-0.105-0.52-0.293-0.707
				L26.777,18.303z M27.99,25.656l-2.334,2.334h-3.312l-2.334-2.334v-3.312l2.334-2.334h3.312l2.334,2.334V25.656z"/>
		</g>
	</g>
</g>
</svg>
